<svg width="70" height="70" viewBox="0 0 70 70" fill="none" xmlns="http://www.w3.org/2000/svg">
<path d="M36.6581 31.6463C35.2758 31.3007 33.8934 30.6095 32.8567 29.5728C31.8199 29.2272 31.4743 28.1904 31.4743 27.4992C31.4743 26.808 31.8199 25.7713 32.5111 25.4257C33.5478 24.7345 34.5846 24.0433 35.6214 24.3889C37.6949 24.3889 39.4228 25.4257 40.4596 26.808L43.5699 22.661C42.5331 21.6242 41.4964 20.933 40.4596 20.2419C39.4228 19.5507 38.0405 19.2051 36.6581 19.2051V14.3669H32.5111V19.2051C30.7831 19.5507 29.0552 20.5874 27.6728 21.9698C26.2905 23.6977 25.2537 25.7713 25.5993 27.8448C25.5993 29.9183 26.2905 31.9919 27.6728 33.3742C29.4008 35.1022 31.8199 36.1389 33.8934 37.1757C34.9302 37.5213 36.3125 38.2125 37.3493 38.9037C38.0405 39.5948 38.3861 40.6316 38.3861 41.6684C38.3861 42.7051 38.0405 43.7419 37.3493 44.7787C36.3125 45.8154 34.9302 46.161 33.8934 46.161C32.5111 46.161 30.7831 45.8154 29.7464 44.7787C28.7096 44.0875 27.6728 43.0507 26.9816 42.014L23.5258 45.8154C24.5625 47.1978 25.5993 48.2346 26.9816 49.2713C28.7096 50.3081 30.7831 51.3448 32.8567 51.3448V55.8375H36.6581V50.6537C38.7317 50.3081 40.4596 49.2713 41.842 47.889C43.5699 46.161 44.6067 43.3963 44.6067 40.9772C44.6067 38.9037 43.9155 36.4845 42.1875 35.1022C40.4596 33.3742 38.7317 32.3375 36.6581 31.6463ZM34.5846 7.45508C19.3787 7.45508 6.9375 19.8963 6.9375 35.1022C6.9375 50.3081 19.3787 62.7493 34.5846 62.7493C49.7905 62.7493 62.2317 50.3081 62.2317 35.1022C62.2317 19.8963 49.7905 7.45508 34.5846 7.45508ZM34.5846 58.9478C21.4522 58.9478 10.739 48.2345 10.739 35.1022C10.739 21.9698 21.4522 11.2566 34.5846 11.2566C47.717 11.2566 58.4302 21.9698 58.4302 35.1022C58.4302 48.2345 47.717 58.9478 34.5846 58.9478Z" fill="white"/>
</svg>
