<svg width="22" height="23" viewBox="0 0 22 23" fill="none" xmlns="http://www.w3.org/2000/svg">
<path d="M2.27099 2.2281L18.7878 9.46766L13.8805 11.7189L12.9886 12.1273L13.6692 12.835L19.1259 18.485L17.2098 20.2841L11.8688 14.5115L11.197 13.7837L10.7421 14.6635L8.33443 19.3131L2.27099 2.2281ZM1.60477 0.342328C1.35689 0.4299 1.12871 0.565485 0.933272 0.741325C0.737837 0.917165 0.578988 1.12981 0.46581 1.3671C0.352632 1.60439 0.287347 1.86166 0.273689 2.1242C0.260031 2.38674 0.298268 2.6494 0.386212 2.89715L6.44898 19.9802C6.62666 20.4792 6.99476 20.8875 7.47272 21.1158C7.95068 21.344 8.49959 21.3737 8.99937 21.1982C9.47081 21.0317 9.87115 20.6909 10.11 20.2321L11.6625 17.2326L15.7412 21.6418C16.0072 21.9274 16.3506 22.1293 16.7295 22.223C17.1083 22.3166 17.5063 22.298 17.8747 22.1692C18.1331 22.078 18.3734 21.9326 18.5784 21.7414L20.4942 19.9414C20.6872 19.76 20.8422 19.542 20.9503 19.3002C21.0583 19.0583 21.1173 18.7974 21.1237 18.5326C21.1301 18.2678 21.0838 18.0043 20.9875 17.7575C20.8913 17.5107 20.747 17.2855 20.5629 17.095L16.3855 12.7695L19.6198 11.2853C19.9711 11.1252 20.2684 10.8667 20.4758 10.5411C20.6833 10.2155 20.792 9.83685 20.7887 9.45083C20.7855 9.06481 20.6706 8.68798 20.4577 8.36592C20.2449 8.04385 19.9433 7.79033 19.5895 7.63602L3.07358 0.396128C2.60855 0.192421 2.08346 0.173187 1.60477 0.342328Z" fill="white"/>
</svg>
